<?xml version="1.0" encoding="UTF-8" standalone="no"?>
<!-- Created with Inkscape (http://www.inkscape.org/) -->

<svg
   xmlns:dc="http://purl.org/dc/elements/1.1/"
   xmlns:cc="http://creativecommons.org/ns#"
   xmlns:rdf="http://www.w3.org/1999/02/22-rdf-syntax-ns#"
   xmlns:svg="http://www.w3.org/2000/svg"
   xmlns="http://www.w3.org/2000/svg"
   xmlns:sodipodi="http://sodipodi.sourceforge.net/DTD/sodipodi-0.dtd"
   xmlns:inkscape="http://www.inkscape.org/namespaces/inkscape"
   width="30"
   height="30"
   viewBox="0 0 7.9374998 7.9375002"
   version="1.1"
   id="svg8"
   inkscape:version="0.92.4 (unknown)"
   sodipodi:docname="logo.svg">
  <defs
     id="defs2" />
  <sodipodi:namedview
     id="base"
     pagecolor="#ffffff"
     bordercolor="#666666"
     borderopacity="1.0"
     inkscape:pageopacity="0.0"
     inkscape:pageshadow="2"
     inkscape:zoom="11.2"
     inkscape:cx="22.624613"
     inkscape:cy="12.322331"
     inkscape:document-units="mm"
     inkscape:current-layer="layer1"
     showgrid="false"
     units="px"
     inkscape:window-width="1270"
     inkscape:window-height="1422"
     inkscape:window-x="0"
     inkscape:window-y="0"
     inkscape:window-maximized="0" />
  <metadata
     id="metadata5">
    <rdf:RDF>
      <cc:Work
         rdf:about="">
        <dc:format>image/svg+xml</dc:format>
        <dc:type
           rdf:resource="http://purl.org/dc/dcmitype/StillImage" />
        <dc:title></dc:title>
      </cc:Work>
    </rdf:RDF>
  </metadata>
  <g
     inkscape:label="Layer 1"
     inkscape:groupmode="layer"
     id="layer1"
     transform="translate(0,-289.06248)">
    <g
       aria-label="."
       style="font-style:normal;font-weight:normal;font-size:10.58333302px;line-height:5.29166651px;font-family:Sans;letter-spacing:0px;word-spacing:0px;fill:#21252f;fill-opacity:0.94117647;stroke:none;stroke-width:0.26458332px;stroke-linecap:butt;stroke-linejoin:miter;stroke-opacity:1"
       id="text817"
       transform="matrix(2.4478081,0,0,2.4478081,-5.7188814,-423.94924)">
      <path
         d="m 5.2547548,292.91754 q 0,0.18604 -0.093017,0.28422 -0.08785,0.0982 -0.2015381,0.15503 -0.1085205,0.0568 -0.2015381,0.0982 -0.093018,0.0362 -0.093018,0.10852 l 0.031006,0.0413 q 0.020671,0 0.077515,0.0103 0.062012,0.005 0.1188558,0.0207 0.062012,0.0155 0.1085205,0.0362 0.046509,0.0207 0.046509,0.0465 -0.00517,0.0207 -0.020671,0.0362 -0.015503,0.0103 -0.031006,0.0207 -0.041341,0.031 -0.077515,0.0362 -0.036174,0.005 -0.062012,0.0155 -0.025838,0.005 -0.046509,0.031 -0.020671,0.0207 -0.036174,0.093 -0.015503,0.062 -0.056844,0.093 -0.041341,0.0258 -0.08785,0.0465 -0.041341,0.0155 -0.077515,0.0362 -0.036173,0.0207 -0.036173,0.0672 v 0.0103 q -0.1188558,-0.0879 -0.2635498,-0.0879 -0.1498617,0 -0.2945557,0.0517 -0.144694,0.0465 -0.2945556,0.0465 -0.1240235,0 -0.2687175,-0.0724 -0.144694,-0.0723 -0.2687174,-0.18086 -0.1240234,-0.11369 -0.2067057,-0.24805 -0.082682,-0.13953 -0.082682,-0.27389 0,-0.0362 0.015503,-0.062 0.020671,-0.031 0.046509,-0.0568 -0.025838,-0.0672 -0.062012,-0.0879 -0.036173,-0.0207 -0.072347,-0.031 -0.031006,-0.0103 -0.056844,-0.031 -0.020671,-0.0258 -0.020671,-0.0982 0,-0.10335 -0.015503,-0.19637 -0.010335,-0.0982 -0.010335,-0.19637 0,-0.0568 0.00517,-0.11369 0.010335,-0.0568 0.031006,-0.0982 0.025838,-0.0465 0.067179,-0.0724 0.041341,-0.031 0.1085205,-0.031 h 0.025838 q -0.041341,-0.0568 -0.067179,-0.12402 -0.025838,-0.0724 -0.025838,-0.14469 0,-0.0103 0,-0.0207 0.00517,-0.0155 0.020671,-0.0155 0.025838,0 0.046509,0.0155 0.025838,0.0103 0.051676,0.0155 l 0.046509,-0.0207 q 0.025838,-0.0258 0.025838,-0.0517 0,-0.0258 -0.015503,-0.0413 -0.015503,-0.0155 -0.020671,-0.0413 0.020671,-0.0258 0.056844,-0.031 0.041341,-0.0103 0.067179,-0.0155 0.067179,-0.0155 0.08785,-0.0362 0.025838,-0.0207 0.031006,-0.0465 0.00517,-0.031 0.010335,-0.0569 0.010335,-0.0258 0.051677,-0.0465 0.031006,-0.0155 0.1188558,-0.031 0.08785,-0.0155 0.1860351,-0.031 0.1033529,-0.0155 0.1963704,-0.0258 0.098185,-0.0103 0.1395264,-0.0155 0.031006,0.0568 0.1240234,0.0879 0.098185,0.0258 0.2222087,0.0413 0.1240234,0.0155 0.2635498,0.031 0.1395263,0.0155 0.2532145,0.0517 0.1188558,0.0362 0.1912028,0.10335 0.077515,0.0672 0.077515,0.18087 l -0.00517,0.0465 -0.020671,0.005 q -0.056844,0 -0.1033528,-0.0362 -0.046509,-0.0362 -0.1033529,-0.0362 -0.025838,-0.0362 -0.093018,0.0155 -0.067179,0.0465 -0.1240234,0.11369 -0.056844,0.062 -0.077515,0.11885 -0.02067,0.0517 0.051677,0.0258 0.036173,-0.0103 0.067179,-0.031 0.036173,-0.0258 0.077515,-0.0258 0.020671,0 0.051676,0.031 0.031006,0.0258 0.072347,0.0568 0.046509,0.031 0.098185,0.062 0.051677,0.0258 0.1240235,0.0258 0.067179,0 0.129191,-0.031 0.020671,0.11886 0.046509,0.23771 0.025838,0.11886 0.025838,0.24288 z m -0.7906493,0.27389 q -0.031006,-0.062 -0.093018,-0.0879 l 0.00517,0.0103 q 0,0.0207 -0.025838,0.0413 -0.020671,0.0155 -0.051676,0.031 -0.031006,0.0155 -0.056844,0.031 -0.020671,0.0155 -0.020671,0.0258 0,0.0155 0.031006,0.0207 0.031006,0.005 0.041341,0.005 0.036174,0 0.1033529,-0.0155 0.067179,-0.0207 0.067179,-0.062 z m -0.3875733,-0.23771 q -0.082682,0.005 -0.1653646,0.0258 -0.077515,0.0155 -0.1653645,0.0155 -0.08785,0 -0.1860352,-0.0413 v 0.2222 q 0.046509,-0.0258 0.093018,-0.031 0.046509,-0.0103 0.098185,-0.0103 h 0.1085205 q 0.1808675,0 0.217041,-0.18086 z m -0.7338053,0.61494 v -0.0155 q 0,-0.062 -0.036174,-0.093 -0.031006,-0.031 -0.077515,-0.0517 -0.046509,-0.0207 -0.098185,-0.0362 -0.051676,-0.0207 -0.08785,-0.0517 0.015503,0.28939 0.2945557,0.29455 z"
         style="font-style:normal;font-variant:normal;font-weight:normal;font-stretch:normal;font-size:10.58333302px;font-family:'Special Elite';-inkscape-font-specification:'Special Elite, Normal';font-variant-ligatures:normal;font-variant-caps:normal;font-variant-numeric:normal;font-feature-settings:normal;text-align:start;writing-mode:lr-tb;text-anchor:start;stroke-width:0.26458332px;fill:#21252f;fill-opacity:0.94117647"
         id="path819"
         inkscape:connector-curvature="0" />
    </g>
  </g>
</svg>
